<?xml version="1.0" encoding="UTF-8"?>
<svg version="1.1" xmlns="http://www.w3.org/2000/svg" width="864" height="864">
<path d="M0 0 C1.27958588 0.00182281 2.55917175 0.00364563 3.87753296 0.00552368 C22.60471557 0.0504379 40.96044923 0.47615252 59.5 3.3125 C61.23080811 3.56193359 61.23080811 3.56193359 62.99658203 3.81640625 C105.89417076 10.09835823 147.24214621 23.04339936 186.5 41.3125 C187.88131104 41.94937744 187.88131104 41.94937744 189.29052734 42.59912109 C225.08451445 59.25937209 258.80700143 82.36373423 287.91796875 108.9765625 C289.33059541 110.25455152 290.74944736 111.52621969 292.19604492 112.765625 C297.70211314 117.49011002 302.87961878 122.50593706 308.00854492 127.63574219 C309.42668284 129.05169947 310.85296665 130.45948289 312.27929688 131.8671875 C317.66085669 137.23752794 322.63884935 142.75510048 327.38110352 148.6965332 C329.39376261 151.18134047 331.47981573 153.56300689 333.625 155.93359375 C337.49255856 160.24351388 341.03790148 164.73523602 344.5 169.375 C345.13518555 170.22570068 345.77037109 171.07640137 346.42480469 171.95288086 C358.54305086 188.35695664 369.72506092 205.40956391 379.5 223.3125 C379.97888672 224.18664551 380.45777344 225.06079102 380.95117188 225.96142578 C404.63571995 269.50372727 420.48926859 316.61903835 428.25 365.5625 C428.44867676 366.80322266 428.64735352 368.04394531 428.85205078 369.32226562 C432.01053302 390.1406421 432.87473534 410.77132686 432.8125 431.8125 C432.80976578 433.73187881 432.80976578 433.73187881 432.80697632 435.69003296 C432.7620621 454.41721557 432.33634748 472.77294923 429.5 491.3125 C429.25056641 493.04330811 429.25056641 493.04330811 428.99609375 494.80908203 C422.71414177 537.70667076 409.76910064 579.05464621 391.5 618.3125 C390.86312256 619.69381104 390.86312256 619.69381104 390.21337891 621.10302734 C373.55312791 656.89701445 350.44876577 690.61950143 323.8359375 719.73046875 C322.55794848 721.14309541 321.28628031 722.56194736 320.046875 724.00854492 C315.32238998 729.51461314 310.30656294 734.69211878 305.17675781 739.82104492 C303.76080053 741.23918284 302.35301711 742.66546665 300.9453125 744.09179688 C295.57497206 749.47335669 290.05739952 754.45134935 284.1159668 759.19360352 C281.63115953 761.20626261 279.24949311 763.29231573 276.87890625 765.4375 C272.56898612 769.30505856 268.07726398 772.85040148 263.4375 776.3125 C262.58679932 776.94768555 261.73609863 777.58287109 260.85961914 778.23730469 C244.45554336 790.35555086 227.40293609 801.53756092 209.5 811.3125 C208.62585449 811.79138672 207.75170898 812.27027344 206.85107422 812.76367188 C163.30877273 836.44821995 116.19346165 852.30176859 67.25 860.0625 C66.00927734 860.26117676 64.76855469 860.45985352 63.49023438 860.66455078 C42.6718579 863.82303302 22.04117314 864.68723534 1 864.625 C-0.27958588 864.62317719 -1.55917175 864.62135437 -2.87753296 864.61947632 C-21.60471557 864.5745621 -39.96044923 864.14884748 -58.5 861.3125 C-60.23080811 861.06306641 -60.23080811 861.06306641 -61.99658203 860.80859375 C-104.89417076 854.52664177 -146.24214621 841.58160064 -185.5 823.3125 C-186.88131104 822.67562256 -186.88131104 822.67562256 -188.29052734 822.02587891 C-224.08451445 805.36562791 -257.80700143 782.26126577 -286.91796875 755.6484375 C-288.33059541 754.37044848 -289.74944736 753.09878031 -291.19604492 751.859375 C-296.70211314 747.13488998 -301.87961878 742.11906294 -307.00854492 736.98925781 C-308.42668284 735.57330053 -309.85296665 734.16551711 -311.27929688 732.7578125 C-316.66085669 727.38747206 -321.63884935 721.86989952 -326.38110352 715.9284668 C-328.39376261 713.44365953 -330.47981573 711.06199311 -332.625 708.69140625 C-336.49255856 704.38148612 -340.03790148 699.88976398 -343.5 695.25 C-344.13518555 694.39929932 -344.77037109 693.54859863 -345.42480469 692.67211914 C-357.54305086 676.26804336 -368.72506092 659.21543609 -378.5 641.3125 C-378.97888672 640.43835449 -379.45777344 639.56420898 -379.95117188 638.66357422 C-403.63571995 595.12127273 -419.48926859 548.00596165 -427.25 499.0625 C-427.44867676 497.82177734 -427.64735352 496.58105469 -427.85205078 495.30273438 C-431.01053302 474.4843579 -431.87473534 453.85367314 -431.8125 432.8125 C-431.81067719 431.53291412 -431.80885437 430.25332825 -431.80697632 428.93496704 C-431.7620621 410.20778443 -431.33634748 391.85205077 -428.5 373.3125 C-428.33371094 372.15862793 -428.16742188 371.00475586 -427.99609375 369.81591797 C-421.71414177 326.91832924 -408.76910064 285.57035379 -390.5 246.3125 C-390.07541504 245.39162598 -389.65083008 244.47075195 -389.21337891 243.52197266 C-372.55312791 207.72798555 -349.44876577 174.00549857 -322.8359375 144.89453125 C-321.55794848 143.48190459 -320.28628031 142.06305264 -319.046875 140.61645508 C-314.32238998 135.11038686 -309.30656294 129.93288122 -304.17675781 124.80395508 C-302.76080053 123.38581716 -301.35301711 121.95953335 -299.9453125 120.53320312 C-294.57497206 115.15164331 -289.05739952 110.17365065 -283.1159668 105.43139648 C-280.63115953 103.41873739 -278.24949311 101.33268427 -275.87890625 99.1875 C-271.56898612 95.31994144 -267.07726398 91.77459852 -262.4375 88.3125 C-261.58679932 87.67731445 -260.73609863 87.04212891 -259.85961914 86.38769531 C-243.45554336 74.26944914 -226.40293609 63.08743908 -208.5 53.3125 C-207.62585449 52.83361328 -206.75170898 52.35472656 -205.85107422 51.86132812 C-162.30877273 28.17678005 -115.19346165 12.32323141 -66.25 4.5625 C-65.00927734 4.36382324 -63.76855469 4.16514648 -62.49023438 3.96044922 C-41.6718579 0.80196698 -21.04117314 -0.06223534 0 0 Z " fill="#FDFDFD" transform="translate(431.5,-0.3125)"/>
<path d="M0 0 C0 0.66 0 1.32 0 2 C0.69222656 1.96519531 1.38445312 1.93039063 2.09765625 1.89453125 C13.26477911 1.58555947 23.83102296 3.35169679 34 8 C34 8.33 34 8.66 34 9 C11.89 8.34 -10.22 7.68 -33 7 C-33 7.66 -33 8.32 -33 9 C-31.824375 9.20625 -30.64875 9.4125 -29.4375 9.625 C-26.00394271 10.4476231 -24.33478033 11.44040382 -21.9375 14 C-16.98234844 18.76904258 -9.53097011 18.51248872 -3 19 C-3 19.66 -3 20.32 -3 21 C-2.18442627 20.99057373 -1.36885254 20.98114746 -0.52856445 20.97143555 C8.22700909 20.91550314 16.92193812 21.17810516 25.66088867 21.68969727 C27.82750097 21.81335618 29.99457144 21.91936577 32.16210938 22.02539062 C42.80929088 22.60517447 50.80909461 24.59358506 60 30 C62.26985894 30.76040572 62.26985894 30.76040572 64 31 C64 31.66 64 32.32 64 33 C64.845625 33.226875 65.69125 33.45375 66.5625 33.6875 C70 35 70 35 73.1875 37.375 C79.88439707 42.36079562 87.55008749 44.24819153 95.76171875 44.78515625 C98.68945429 45.06617799 101.27377395 45.92385814 104 47 C104 47.66 104 48.32 104 49 C104.66515625 49.10570312 105.3303125 49.21140625 106.015625 49.3203125 C109.73216944 50.16675063 113.20526416 51.50035752 116.75 52.875 C122.46176125 55.05583066 128.17875757 57.12536261 134 59 C134.99 59.33 135.98 59.66 137 60 C137 60.66 137 61.32 137 62 C138.60875 62.2784375 138.60875 62.2784375 140.25 62.5625 C145.42240475 63.8233887 149.59321022 66.54110772 154.0703125 69.34375 C156.99534506 70.99736841 159.78624095 72.0463623 163 73 C163 73.66 163 74.32 163 75 C163.79535156 75.21785156 164.59070313 75.43570313 165.41015625 75.66015625 C170.09787464 77.4097617 174.16931051 79.84695684 178.4375 82.4375 C179.75995728 83.23667847 179.75995728 83.23667847 181.10913086 84.05200195 C189.08620424 88.93823936 196.61151026 94.27252323 204 100 C204.96035156 100.72445312 205.92070313 101.44890625 206.91015625 102.1953125 C218.38380241 111.14310562 227.7737327 122.05545988 236 134 C237.21337337 135.70138273 238.43458611 137.39698423 239.65576172 139.09277344 C256.15152733 162.02974277 256.15152733 162.02974277 256 169 C250.4678237 166.23391185 246.37039634 162.73045814 241.84765625 158.53515625 C238.79598221 155.81837099 235.62209533 153.34971473 232.375 150.875 C226.04626931 146.03167303 220.27434842 140.71176332 214.59326172 135.12646484 C209.44034253 130.13759237 204.45917265 126.32138153 197.3125 124.6875 C187.50067693 121.88200142 179.87549776 116.2239162 172.57958984 109.27514648 C164.94250404 102.01530832 156.73654441 95.20007798 147 91 C152.21356337 98.50344218 158.01669465 105.43628559 165.69140625 110.51171875 C166.33013672 110.93727051 166.96886719 111.36282227 167.62695312 111.80126953 C168.8939617 112.62687073 170.17777415 113.42736824 171.47851562 114.19873047 C173.25390625 115.34765625 173.25390625 115.34765625 176 118 C176.1796875 121.97265625 176.1796875 121.97265625 176.00708008 124.05737305 C175.9954601 127.24565553 177.60866169 128.9651425 179.5625 131.375 C180.28824219 132.30054688 181.01398437 133.22609375 181.76171875 134.1796875 C182.50035156 135.11039063 183.23898437 136.04109375 184 137 C185.30566751 138.82338867 186.59831706 140.65620105 187.875 142.5 C188.70644531 143.69109375 188.70644531 143.69109375 189.5546875 144.90625 C193 149.8972973 193 149.8972973 193 154 C193.66 154 194.32 154 195 154 C195.87890625 160.15234375 195.87890625 160.15234375 196 162 C195 163 195 163 191.7890625 163.265625 C182.33263934 162.60270049 174.60549643 153.89821954 167.984375 147.63574219 C156.42506643 136.73754973 143.56413877 128.20669633 130 120 C129.35063477 119.60699707 128.70126953 119.21399414 128.03222656 118.80908203 C121.74991791 114.91252995 121.74991791 114.91252995 115 112 C115 111.34 115 110.68 115 110 C114.15179687 109.96261719 113.30359375 109.92523438 112.4296875 109.88671875 C100.11160479 109.19636466 88.78442645 106.6647833 77.03515625 102.91015625 C73.48558027 101.84574029 69.94236935 101.10502515 66.30078125 100.4375 C62.82586962 99.77673582 59.4232493 98.88750908 56 98 C56 97.34 56 96.68 56 96 C55.06929687 95.90589844 54.13859375 95.81179687 53.1796875 95.71484375 C47.97697795 94.97066533 43.09611868 93.21841538 38.125 91.5625 C27.95782974 88.18966992 18.43879047 85.84632652 7.75 85 C6.01555385 84.85501534 4.28118262 84.70913242 2.546875 84.5625 C1.55389404 84.48233643 0.56091309 84.40217285 -0.4621582 84.31958008 C-3.11685287 84.07977638 -5.75595299 83.8044427 -8.40307617 83.4987793 C-22.30236191 81.94653564 -36.08063293 81.72378426 -50.05834961 81.79418945 C-53.82477565 81.81255987 -57.59095541 81.81469743 -61.35742188 81.81445312 C-83.15326813 80.72522419 -83.15326813 80.72522419 -104.0625 85.23779297 C-108.32437379 86.91440209 -112.9963555 87.3527817 -117.5 88.0625 C-129.61367784 89.7966349 -129.61367784 89.7966349 -141 94 C-142.49216591 94.27560527 -143.99431278 94.4992891 -145.5 94.6875 C-151.37779266 95.66846133 -156.83529002 97.52360883 -162.4375 99.5 C-163.3140625 99.80897217 -164.190625 100.11794434 -165.09375 100.4362793 C-169.68158025 102.05689814 -169.68158025 102.05689814 -174.08618164 104.10351562 C-176 105 -176 105 -179 105 C-179 105.66 -179 106.32 -179 107 C-181.97 107.66 -184.94 108.32 -188 109 C-188 109.66 -188 110.32 -188 111 C-192.20563688 112.86917195 -196.45107552 114.60578984 -200.75 116.25 C-201.67296875 116.60578125 -202.5959375 116.9615625 -203.546875 117.328125 C-206 118 -206 118 -209 117 C-208.34 115.68 -207.68 114.36 -207 113 C-207.75925781 113.2165625 -208.51851563 113.433125 -209.30078125 113.65625 C-210.29464844 113.9346875 -211.28851563 114.213125 -212.3125 114.5 C-213.29863281 114.7784375 -214.28476562 115.056875 -215.30078125 115.34375 C-218 116 -218 116 -221 116 C-221 116.66 -221 117.32 -221 118 C-224.3 118.99 -227.6 119.98 -231 121 C-231 121.66 -231 122.32 -231 123 C-232.155 123.433125 -233.31 123.86625 -234.5 124.3125 C-247.72995059 130.23388634 -259.26805706 140.29479578 -270.2644043 149.5612793 C-271.41605288 150.51593749 -272.58710241 151.44768878 -273.77661133 152.35473633 C-275.2474492 153.49270151 -276.63200096 154.74027486 -278 156 C-278.22253401 158.00280611 -278.44158873 160.00779977 -278.55859375 162.01953125 C-279.43491744 165.95135522 -282.81653214 167.84771193 -286 170 C-286.67417969 170.41121094 -287.34835937 170.82242188 -288.04296875 171.24609375 C-295.68651273 175.93803241 -301.14146553 182.31481454 -307 189 C-307.62648438 189.70253906 -308.25296875 190.40507812 -308.8984375 191.12890625 C-310.61771071 193.07042698 -312.31055146 195.03245294 -314 197 C-314.92442929 198.07035558 -315.84891358 199.14066365 -316.7734375 200.2109375 C-322.16057588 206.46005246 -327.47247326 212.75528338 -332.66015625 219.171875 C-334.36889323 221.23719316 -336.09589464 223.25923445 -337.87109375 225.265625 C-345.04949052 233.39752869 -351.28665405 241.779718 -357 251 C-357.44150391 251.7115625 -357.88300781 252.423125 -358.33789062 253.15625 C-362.87019655 260.52205763 -367.26695801 267.75045644 -370.19921875 275.921875 C-371.02042865 278.05301484 -372.02153991 279.91387984 -373.1875 281.875 C-374.65069033 284.39774195 -375.54663741 286.1664838 -376 289 C-376.66 289 -377.32 289 -378 289 C-378.268125 289.99 -378.53625 290.98 -378.8125 292 C-379.56431552 294.65253223 -380.43031707 297.10385684 -381.4375 299.6875 C-382.66817815 302.89115799 -383.55164088 306.07611805 -384.34765625 309.4140625 C-386.02577865 316.23607383 -387.98748784 322.9576896 -390 329.6875 C-390.34289062 330.84572266 -390.68578125 332.00394531 -391.0390625 333.19726562 C-392.49555055 338.09206613 -393.96724237 342.9638795 -395.65234375 347.78515625 C-397.09791634 352.04905782 -397.88365576 356.30738622 -398.5625 360.75 C-399.75357681 368.44095313 -399.75357681 368.44095313 -400.97875977 371.22045898 C-402.32216654 374.8768506 -402.70788351 378.51346068 -403.0859375 382.36328125 C-403.16951508 383.18846756 -403.25309265 384.01365387 -403.33920288 384.86384583 C-404.31562703 395.28520026 -404.45910167 405.72812856 -404.625 416.1875 C-404.66331664 418.22071732 -404.70237545 420.25392079 -404.7421875 422.28710938 C-404.83664144 427.19128955 -404.92119041 432.09554451 -405 437 C-404.34 437 -403.68 437 -403 437 C-401.36904748 448.58335821 -399.90460361 460.14787452 -399 471.8125 C-398.67186657 475.87543682 -398.33714089 479.93780151 -398 484 C-397.86972412 485.6082666 -397.86972412 485.6082666 -397.73681641 487.24902344 C-396.04306638 507.26069472 -392.34273579 526.98589632 -381 544 C-379.01679982 545.03291676 -377.01652194 546.0337499 -375 547 C-372.42827503 549.57172497 -372.39494417 551.38996154 -371.625 554.9375 C-367.9200909 568.41618051 -358.73288699 579.83410033 -350.58398438 590.99511719 C-347.6794355 594.98244072 -344.99835322 599.07327874 -342.375 603.25 C-339.22766898 608.25079734 -335.79519502 612.84010067 -332.01953125 617.3828125 C-329.6797426 620.41503377 -327.69042888 623.61737294 -325.6875 626.875 C-321.9016643 632.98418878 -317.55087119 638.1049411 -312.578125 643.28125 C-310.7529204 645.20601121 -309.05927088 647.10573036 -307.38671875 649.15234375 C-305.51218104 651.38890348 -303.7904609 653.21529916 -301.5625 655.0625 C-298.96226639 657.26978786 -296.43167838 659.52063704 -293.96875 661.87890625 C-278.72823585 676.4501718 -261.94123457 687.98636352 -244 699 C-243.26942383 699.44891602 -242.53884766 699.89783203 -241.78613281 700.36035156 C-237.55039624 702.95236947 -233.28776567 705.49508657 -229 708 C-228.39720215 708.35288086 -227.7944043 708.70576172 -227.17333984 709.06933594 C-214.21158204 716.6334988 -201.20794229 723.79657859 -186.51171875 727.3671875 C-179.3118921 729.12354273 -172.25977612 731.29196325 -165.1875 733.5 C-163.90436023 733.89473726 -162.62115732 734.28926933 -161.33789062 734.68359375 C-151.05665 737.87933259 -151.05665 737.87933259 -147.10546875 739.68359375 C-143.50522737 741.2097338 -139.96106384 741.94779515 -136.125 742.5625 C-135.00339478 742.7490918 -135.00339478 742.7490918 -133.85913086 742.93945312 C-126.87693254 744.07197904 -119.87943915 744.99716083 -112.84228516 745.70996094 C-110.73704815 745.92478842 -108.6326731 746.14809983 -106.52880859 746.37597656 C-89.86873569 748.15850112 -73.32416253 749.29474125 -56.5625 749.3125 C-55.81738159 749.31590393 -55.07226318 749.31930786 -54.30456543 749.32281494 C-36.14746897 749.37058354 -18.39999756 746.89943358 -0.5 744.0625 C1.13144374 743.80751573 2.76295424 743.55295821 4.39453125 743.29882812 C7.63379277 742.7939153 10.87183754 742.2819536 14.109375 741.76611328 C17.47054809 741.23322165 20.83469718 740.73046208 24.203125 740.24560547 C25.05418823 740.11987656 25.90525146 739.99414764 26.78210449 739.86460876 C28.39402818 739.62692029 30.00702834 739.39636975 31.62121582 739.17457581 C36.53199036 738.43939462 40.49101606 737.07632007 45 735 C47.640625 734.515625 47.640625 734.515625 50.25 734.25 C65.73754571 731.95917465 80.70914698 724.10759385 94.8125 717.625 C95.93873779 717.10768311 97.06497559 716.59036621 98.2253418 716.05737305 C107.80843237 711.62128561 117.24540152 706.9367993 126.6340332 702.10205078 C127.65843506 701.57981934 128.68283691 701.05758789 129.73828125 700.51953125 C130.63587158 700.05651611 131.53346191 699.59350098 132.45825195 699.11645508 C134.98504524 698.00656883 137.28164107 697.42886063 140 697 C140 696.34 140 695.68 140 695 C141.44604492 693.83007813 141.44604492 693.83007813 143.48046875 692.53125 C144.22586914 692.04785156 144.97126953 691.56445312 145.73925781 691.06640625 C146.54717773 690.54949219 147.35509766 690.03257812 148.1875 689.5 C173.50153546 672.94813362 197.43593898 652.10652475 217 629 C217.83273437 628.03320312 218.66546875 627.06640625 219.5234375 626.0703125 C228.83842917 615.21964624 237.48086672 604.18875375 245 592 C245.9248928 590.54938227 246.85217987 589.1002896 247.78125 587.65234375 C254.20661887 577.61565868 260.28731989 567.45882091 266 557 C266.66 557 267.32 557 268 557 C268.66 554.36 269.32 551.72 270 549 C270.66 549 271.32 549 272 549 C272.11730469 548.31292969 272.23460937 547.62585938 272.35546875 546.91796875 C273.08951923 543.59472202 274.15487829 540.51298355 275.3125 537.3125 C275.53687744 536.69093018 275.76125488 536.06936035 275.99243164 535.42895508 C277.24386347 531.9876287 278.55156938 528.57662445 279.9375 525.1875 C282.09322651 519.91210422 283.95225251 514.53830278 285.80639648 509.15112305 C286.96802025 505.80323385 288.17787301 502.51570036 289.6015625 499.26953125 C290.73944068 496.60918477 291.60737733 494.16671015 292.3125 491.375 C293.29981541 487.578037 294.34203938 483.80525169 295.453125 480.04296875 C299.21563432 467.36904523 299.21563432 467.36904523 301.578125 454.375 C302 452 302 452 302.96166992 449.80151367 C304.20179742 446.45553129 304.61121949 443.34385937 305.03515625 439.80078125 C305.11873886 439.12452194 305.20232147 438.44826263 305.28843689 437.75151062 C305.55286737 435.60589705 305.80832788 433.45935099 306.0625 431.3125 C306.32133046 429.15509886 306.5821348 426.99798945 306.84727478 424.84135437 C307.0863912 422.89258982 307.31887284 420.9430146 307.55102539 418.9934082 C308 416 308 416 309 414 C309.09658347 412.00488177 309.12796466 410.00648735 309.12939453 408.0090332 C309.13254669 406.75044998 309.13569885 405.49186676 309.13894653 404.19514465 C309.13715573 402.81368983 309.13510452 401.43223533 309.1328125 400.05078125 C309.1334862 398.63551314 309.13445677 397.22024513 309.13571167 395.80497742 C309.13718795 392.83327131 309.13503793 389.8615952 309.13037109 386.88989258 C309.12469982 383.09489937 309.12793664 379.2999773 309.13394356 375.50498676 C309.1375733 372.57862319 309.13639908 369.6522762 309.13381577 366.72591209 C309.13315181 365.32778095 309.13395623 363.92964828 309.13629532 362.53151894 C309.13885859 360.56699277 309.13425388 358.60246128 309.12939453 356.63793945 C309.12859894 355.52256302 309.12780334 354.40718658 309.12698364 353.25801086 C309.24911405 347.19985491 309.24911405 347.19985491 307 342 C306.68822917 339.94788796 306.43398554 337.88700043 306.203125 335.82421875 C306.05149902 334.53040283 305.89987305 333.23658691 305.74365234 331.90356445 C305.66346863 331.2150943 305.58328491 330.52662415 305.50067139 329.81729126 C304.02210934 317.25491404 301.8570373 305.18278899 298.50341797 292.97460938 C297.7948301 290.19524046 297.35266901 287.3988759 296.9375 284.5625 C296.13808315 279.10628594 294.55772907 274.03323695 292.8046875 268.8125 C292 266 292 266 292 262 C294.44446947 262.97027516 295.74685486 263.58110703 297.12719727 265.86523438 C297.41651123 266.60064453 297.7058252 267.33605469 298.00390625 268.09375 C298.33406738 268.90070313 298.66422852 269.70765625 299.00439453 270.5390625 C299.33294434 271.35117187 299.66149414 272.16328125 300 273 C300.6459101 274.41042404 301.30060201 275.816866 301.96484375 277.21875 C309.04656512 292.48108055 313.1179824 307.8955292 316.85791016 324.27172852 C317.89446808 328.74725742 318.94452401 333.0994488 320.609375 337.38671875 C321.83857194 340.58055911 322.60212573 343.38459108 323.125 346.75 C323.34542969 348.10351562 323.34542969 348.10351562 323.5703125 349.484375 C324.7749301 359.34033718 325.14916594 369.09901678 325.1328125 379.0234375 C325.13376923 380.32721344 325.13472595 381.63098938 325.13571167 382.97427368 C325.13717342 385.71560878 325.1350844 388.45691096 325.13037109 391.19824219 C325.12468614 394.66941145 325.12795481 398.14050313 325.13394356 401.61166954 C325.13847829 404.97809798 325.13527921 408.34450687 325.1328125 411.7109375 C325.13483673 412.93533539 325.13686096 414.15973328 325.13894653 415.42123413 C325.08317694 436.32449756 325.08317694 436.32449756 323 444 C322.82214688 445.9320209 322.68309763 447.86777862 322.5703125 449.8046875 C322.4988501 450.93914307 322.4273877 452.07359863 322.35375977 453.24243164 C322.27826904 454.4411792 322.20277832 455.63992676 322.125 456.875 C321.20735675 470.23768401 318.88749365 482.20699965 315 495 C314.66315186 496.1139917 314.32630371 497.2279834 313.97924805 498.37573242 C312.84766138 502.10693045 311.70579157 505.83487324 310.5625 509.5625 C309.98918945 511.45645508 309.98918945 511.45645508 309.40429688 513.38867188 C307.53677426 519.46049837 305.58749623 525.33345488 302.89086914 531.08862305 C301.59062988 533.8783115 300.52012753 536.7451393 299.4375 539.625 C297.72464366 544.13446437 295.94943 548.58813211 294 553 C293.34 553 292.68 553 292 553 C291.71125 554.2375 291.4225 555.475 291.125 556.75 C290.38665206 559.72448742 289.55525067 562.333856 288 565 C287.34 565 286.68 565 286 565 C285.67515625 566.18529297 285.67515625 566.18529297 285.34375 567.39453125 C283.5676434 572.16007309 281.10125056 576.32839302 278.5 580.6875 C277.93466553 581.63866699 277.36933105 582.58983398 276.78686523 583.56982422 C269.30322968 596.00611635 261.17039765 608.00960417 253 620 C252.35853027 620.94746094 251.71706055 621.89492188 251.05615234 622.87109375 C235.30845575 646.08620571 217.35096851 666.70163827 196 685 C194.95178523 685.92556824 193.90484059 686.85257757 192.859375 687.78125 C140.27057092 734 140.27057092 734 125 734 C125 734.66 125 735.32 125 736 C124.49460693 736.21624023 123.98921387 736.43248047 123.46850586 736.65527344 C115.573633 740.09295178 107.93662024 744.02015803 100.26757812 747.9296875 C99.23181641 748.45304688 98.19605469 748.97640625 97.12890625 749.515625 C95.72233765 750.23153809 95.72233765 750.23153809 94.28735352 750.96191406 C92 752 92 752 90 752 C90 752.66 90 753.32 90 754 C89.38511719 754.26554688 88.77023437 754.53109375 88.13671875 754.8046875 C87.32847656 755.15789063 86.52023437 755.51109375 85.6875 755.875 C84.88699219 756.22304688 84.08648438 756.57109375 83.26171875 756.9296875 C80.8038166 758.02571894 80.8038166 758.02571894 78 760 C84.07946939 760.44973618 88.19154693 758.99947646 93.6875 756.5 C95.16770179 755.83729946 96.65070051 755.18080302 98.13671875 754.53125 C98.78342529 754.23798828 99.43013184 753.94472656 100.09643555 753.64257812 C102 753 102 753 106 753 C106 752.34 106 751.68 106 751 C106.53665283 750.75467529 107.07330566 750.50935059 107.6262207 750.2565918 C120.85483685 744.17387213 133.57717851 737.59429189 146 730 C147.33297119 729.18740723 147.33297119 729.18740723 148.69287109 728.35839844 C169.15602525 715.80594339 187.73426535 701.4543931 205.46679688 685.29833984 C207.04775654 683.8639572 208.63552607 682.43700227 210.23339844 681.02148438 C216.53085724 675.4337856 222.5634244 669.62281972 228.51391602 663.67138672 C230.05923066 662.1282647 231.61240446 660.59335694 233.16601562 659.05859375 C238.85882924 653.3965747 244.13919203 647.621729 249.11523438 641.30957031 C250.78959225 639.25783125 252.51007896 637.43549918 254.4375 635.625 C258.9980046 631.18944073 262.71485543 626.08381146 266.5078125 620.99707031 C268.14129756 618.8108943 269.78974516 616.6363749 271.4375 614.4609375 C281.15792099 601.54250722 289.42556524 588.28746322 297 574 C297.66 574 298.32 574 299 574 C299.226875 573.236875 299.45375 572.47375 299.6875 571.6875 C300.76633977 568.65647397 301.95921816 565.84833264 303.3125 562.9375 C305.7109819 557.74549212 307.79377122 552.47463127 309.8125 547.125 C310.85658347 544.37741191 311.94697374 541.65659525 313.0625 538.9375 C314.50219089 535.37282536 315.75174656 531.7818636 316.9375 528.125 C318.36140119 523.80284323 319.8860899 519.54367878 321.5625 515.3125 C321.95566406 514.31863281 322.34882812 513.32476563 322.75390625 512.30078125 C324 510 324 510 327 509 C326.7732922 515.91458782 325.2603357 522.00704522 323.1875 528.5625 C322.8150415 529.74839722 322.8150415 529.74839722 322.43505859 530.95825195 C320.63889468 536.47994109 318.44265044 541.73577514 316 547 C312.6983261 554.22461787 309.80302968 561.56737621 307 569 C306.34 569 305.68 569 305 569 C304.773125 570.155 304.54625 571.31 304.3125 572.5 C303.31475722 576.53342827 301.60011807 579.42097778 299.3046875 582.84375 C297.37466235 586.03349216 296.11103524 589.41914441 294.796875 592.8984375 C294 595 294 595 293 597 C292.34 597 291.68 597 291 597 C290.01 599.97 289.02 602.94 288 606 C287.34 606 286.68 606 286 606 C285.731875 606.845625 285.46375 607.69125 285.1875 608.5625 C283.9521405 612.13854067 282.523012 615.53860908 281 619 C280.34 619 279.68 619 279 619 C278.01 621.97 277.02 624.94 276 628 C275.34 628 274.68 628 274 628 C273.773125 628.928125 273.54625 629.85625 273.3125 630.8125 C267.23488581 651.78871009 251.96479141 667.19685473 237 682.25 C236.49179718 682.76356049 235.98359436 683.27712097 235.45999146 683.8062439 C228.64177638 690.67879721 221.57289474 696.95222303 214 703 C211.68744863 704.9554916 209.40744988 706.94704425 207.125 708.9375 C201.24731924 714.00969998 195.20497581 718.80887562 189.00537109 723.48486328 C185.67766472 725.9990763 182.36228341 728.52945939 179.04516602 731.05761719 C177.22999315 732.44075703 175.41411532 733.82297238 173.59741211 735.20410156 C166.91050247 740.29057921 160.26540545 745.42796114 153.6640625 750.625 C145.62298392 756.90903056 137.431732 762.63271858 128.4375 767.5 C124.17795749 769.80883968 120.30567034 772.54345332 116.36328125 775.3515625 C108.26540284 781 108.26540284 781 104 781 C104 781.66 104 782.32 104 783 C85.39382566 790.28690656 85.39382566 790.28690656 77.4765625 793.109375 C75.81878405 793.70554769 74.16759579 794.32035746 72.5234375 794.953125 C65.76881878 797.52436959 58.90820407 799.4823565 51.92944336 801.33764648 C48.16199052 802.07697919 48.16199052 802.07697919 45 804 C41.64472786 804.57725112 38.27821628 805.03085686 34.90625 805.5 C32.11524717 805.69242705 32.11524717 805.69242705 31 807 C29.27898368 807.33418158 27.54707156 807.61255835 25.8125 807.8671875 C24.72952637 808.02912598 23.64655273 808.19106445 22.53076172 808.35791016 C20.78303467 808.61386963 20.78303467 808.61386963 19 808.875 C11.27226521 810.03032316 3.55933981 811.2080033 -4.125 812.625 C-10.92885171 813.87265007 -17.74014844 814.77770944 -24.609375 815.5703125 C-27.82271072 815.91966229 -27.82271072 815.91966229 -30.22583008 816.51416016 C-33.74790557 817.13098056 -37.21312414 817.18148342 -40.77734375 817.203125 C-41.55639572 817.21000336 -42.33544769 817.21688171 -43.1381073 817.22396851 C-45.73795118 817.24141168 -48.33760014 817.24746489 -50.9375 817.25 C-51.83507019 817.25167175 -52.73264038 817.25334351 -53.65740967 817.25506592 C-70.50765701 817.25691203 -87.30263991 816.55181736 -104.125 815.625 C-105.30842987 815.56187622 -106.49185974 815.49875244 -107.71115112 815.43371582 C-111.1023694 815.24967863 -114.49260387 815.05327308 -117.8828125 814.8515625 C-118.88950485 814.79624359 -119.8961972 814.74092468 -120.93339539 814.68392944 C-126.53671719 814.32933373 -131.59396996 813.51588005 -137 812 C-143.63873732 810.9496923 -150.29272428 810.87156281 -157 811 C-155.2984375 811.8971875 -155.2984375 811.8971875 -153.5625 812.8125 C-152.60537109 813.31716797 -152.60537109 813.31716797 -151.62890625 813.83203125 C-142.8787859 817.719529 -133.83802667 819.20905252 -124.4375 820.6875 C-123.03309235 820.91402782 -121.6287943 821.14123627 -120.22460938 821.36914062 C-116.81763311 821.92060697 -113.40926932 822.46286874 -110 823 C-110 823.66 -110 824.32 -110 825 C-109.39341553 825.01458252 -108.78683105 825.02916504 -108.16186523 825.04418945 C-92.93477014 825.44832224 -78.06393636 826.76876998 -63 829 C-61.61601318 829.19880813 -60.23191451 829.39684074 -58.84765625 829.59375 C-57.43806641 829.79484375 -57.43806641 829.79484375 -56 830 C-56 830.99 -56 831.98 -56 833 C-85.3357105 833.60210124 -114.59141307 831.00767186 -142.8671875 822.83984375 C-147.00953632 821.72936371 -151.16893282 821.07485236 -155.4140625 820.4921875 C-158 820 -158 820 -160.2890625 819.03515625 C-164.03613089 817.60435924 -167.79251823 817.13162281 -171.75 816.5625 C-173.45068297 816.30445172 -175.15120092 816.04531383 -176.8515625 815.78515625 C-178.13788574 815.59010498 -178.13788574 815.59010498 -179.45019531 815.39111328 C-198.58054224 812.45671882 -198.58054224 812.45671882 -206.0234375 809.68359375 C-208.20526245 808.92901002 -210.36308293 808.45767887 -212.625 808 C-216.71451052 807.1519117 -220.22133939 805.76873475 -224 804 C-224 803.34 -224 802.68 -224 802 C-224.59063232 801.85667236 -225.18126465 801.71334473 -225.78979492 801.56567383 C-232.99125169 799.63484337 -238.94482819 796.51334397 -245.3125 792.6875 C-246.35067871 792.07229492 -247.38885742 791.45708984 -248.45849609 790.82324219 C-267.0549781 779.69307937 -284.81096249 767.26260874 -302.08984375 754.1953125 C-303.99003436 752.76188012 -305.89859199 751.33945387 -307.81640625 749.9296875 C-326.63309589 736.05397895 -343.71518389 720.72899851 -359 703 C-360.28952852 701.56058164 -361.58075244 700.12267674 -362.875 698.6875 C-365.71089894 695.51406273 -368.3962477 692.26091014 -371.0390625 688.92578125 C-376.12476652 682.68925566 -381.74189416 677.09946993 -387.5 671.5 C-397.1204009 662.1446413 -406.31773858 652.64561954 -413.0625 640.9375 C-413.45115234 640.28845703 -413.83980469 639.63941406 -414.24023438 638.97070312 C-417 634.28348214 -417 634.28348214 -417 632 C-417.66 632 -418.32 632 -419 632 C-419.24234375 631.443125 -419.4846875 630.88625 -419.734375 630.3125 C-421.47859743 626.3410397 -423.26747719 622.42133904 -425.25 618.5625 C-427 615 -427 615 -427 613 C-427.66 613 -428.32 613 -429 613 C-431.25861997 608.06612142 -433.40109514 603.19644079 -435 598 C-435.66 598 -436.32 598 -437 598 C-439.25861997 593.06612142 -441.40109514 588.19644079 -443 583 C-443.66 583 -444.32 583 -445 583 C-445.24234375 582.32195313 -445.4846875 581.64390625 -445.734375 580.9453125 C-449.10187515 571.59402362 -452.80437774 562.4112097 -456.65625 553.25 C-457.0996875 552.1775 -457.543125 551.105 -458 550 C-458.30196289 549.27200195 -458.60392578 548.54400391 -458.91503906 547.79394531 C-471.76826651 516.31538148 -481.5956668 480.92430697 -484.56079102 446.97705078 C-484.78276272 444.44430078 -485.00835332 441.91233583 -485.24952698 439.3813324 C-486.99722379 420.9198976 -487.28130073 402.61007695 -487.19561768 384.08868408 C-487.18472096 381.11715682 -487.18515214 378.14567521 -487.18575573 375.17413139 C-487.18548076 372.25001793 -487.17995031 369.32593269 -487.17275429 366.40182877 C-487.16815941 364.38824041 -487.16631838 362.37464633 -487.16459656 360.36105347 C-487.09042179 345.75523921 -486.27067203 332.14857953 -482.4375 318 C-482.10814453 316.73671875 -481.77878906 315.4734375 -481.43945312 314.171875 C-480.63941338 311.11085336 -479.82627303 308.05402357 -479 305 C-477.68 305 -476.36 305 -475 305 C-475.02320313 303.77925781 -475.04640625 302.55851562 -475.0703125 301.30078125 C-475.26692372 286.68303515 -473.69930656 273.9382345 -469 260 C-468.34 260 -467.68 260 -467 260 C-466.87882812 259.45472656 -466.75765625 258.90945313 -466.6328125 258.34765625 C-466.27824721 256.75211245 -465.92128505 255.15710022 -465.5625 253.5625 C-465.21120807 251.9621701 -464.8752271 250.35831078 -464.5625 248.75 C-463.38247794 242.84988969 -461.36972102 237.52026967 -459 232 C-458.69449219 231.278125 -458.38898438 230.55625 -458.07421875 229.8125 C-457.39041603 228.20507749 -456.69650425 226.60195978 -456 225 C-455.34 225 -454.68 225 -454 225 C-453.773125 224.0925 -453.54625 223.185 -453.3125 222.25 C-452.2641729 218.63661724 -450.98527316 215.13241203 -449.625 211.625 C-449.22539062 210.58601562 -448.82578125 209.54703125 -448.4140625 208.4765625 C-447 206 -447 206 -444.8359375 205.1484375 C-444.23007812 205.09945312 -443.62421875 205.05046875 -443 205 C-442.34472153 214.57434651 -444.33840561 221.10288766 -448.87890625 229.45703125 C-451.75960051 235.20296106 -453.40296662 241.34620572 -455.1875 247.5 C-455.54263672 248.68464844 -455.89777344 249.86929688 -456.26367188 251.08984375 C-458.02124487 257.07292904 -459.48424155 262.78010704 -460 269 C-459.34 269 -458.68 269 -458 269 C-458.103125 268.113125 -458.20625 267.22625 -458.3125 266.3125 C-458 263 -458 263 -455.8125 260.3125 C-453 258 -453 258 -450.4375 256.625 C-445.2961447 253.1974298 -443.29727839 246.53435247 -441 241 C-440.6596875 240.35675781 -440.319375 239.71351563 -439.96875 239.05078125 C-438.97808036 236.95359753 -438.53644889 235.15056425 -438.125 232.875 C-437.42001209 229.46663324 -436.43236487 226.44808756 -435.0625 223.25 C-433.43013934 219.40950056 -432.51464622 215.78699036 -431.75 211.6875 C-429.34707124 200.60007328 -422.11433059 191.59438045 -415 183 C-414.22849609 182.02740234 -414.22849609 182.02740234 -413.44140625 181.03515625 C-412.94511719 180.42542969 -412.44882812 179.81570312 -411.9375 179.1875 C-411.51339844 178.66542969 -411.08929688 178.14335937 -410.65234375 177.60546875 C-409 176 -409 176 -406.12890625 174.20703125 C-402.63237012 171.74068554 -400.38872297 168.9789264 -398 165.5 C-397.56341064 164.8797998 -397.12682129 164.25959961 -396.67700195 163.62060547 C-394.13033659 159.91868826 -392.04746558 156.22703888 -390.1875 152.125 C-387.30522698 145.975605 -383.28682774 141.15109153 -378.94555664 135.99267578 C-375.55639966 131.95757632 -372.50610533 127.91186339 -369.625 123.5 C-364.99265653 116.6115337 -359.40568013 110.78135504 -353.6484375 104.82421875 C-351.16632691 102.25491226 -348.77868239 99.63136551 -346.44140625 96.9296875 C-343.28385237 93.28618572 -339.98623295 89.83056179 -336.5625 86.4375 C-335.70857666 85.58973999 -335.70857666 85.58973999 -334.83740234 84.72485352 C-330.69579555 80.63803612 -326.49523471 76.69831702 -322 73 C-321.47712402 72.56333008 -320.95424805 72.12666016 -320.41552734 71.67675781 C-311.99327519 64.66245283 -303.49327011 58.48705724 -294 53 C-292.69289063 52.19369141 -292.69289063 52.19369141 -291.359375 51.37109375 C-288.76759824 49.86494534 -286.10559073 48.88631616 -283.2890625 47.87890625 C-280.7128975 46.8897644 -278.24617381 45.73865106 -275.75 44.5625 C-270.9410698 42.3404426 -266.08962325 40.6459486 -261.046875 39.0390625 C-257.8909504 37.96281129 -254.87061274 36.70225198 -251.8125 35.375 C-244.51130887 32.27723614 -237.93040215 30.66253608 -230 31 C-230.385816 33.33406316 -230.65874395 34.66922745 -232.3828125 36.34033203 C-233.24519531 36.91823486 -233.24519531 36.91823486 -234.125 37.5078125 C-234.74890625 37.93707031 -235.3728125 38.36632812 -236.015625 38.80859375 C-236.67046875 39.24300781 -237.3253125 39.67742187 -238 40.125 C-242.67059259 42.92641799 -242.67059259 42.92641799 -246 47 C-244.51882199 46.71872579 -243.04006751 46.42466268 -241.5625 46.125 C-240.73878906 45.96257812 -239.91507813 45.80015625 -239.06640625 45.6328125 C-238.38449219 45.42398438 -237.70257813 45.21515625 -237 45 C-236.67 44.34 -236.34 43.68 -236 43 C-232.01550313 41.04534116 -229.47725284 40 -225 40 C-225 39.34 -225 38.68 -225 38 C-201.25257896 27.4362006 -201.25257896 27.4362006 -192.59765625 24.81640625 C-187.72137165 23.28385966 -182.97626746 21.37933956 -178.2109375 19.53515625 C-165.67664561 14.69971504 -153.56003679 10.49670464 -140 10 C-140 9.34 -140 8.68 -140 8 C-139.36723145 7.92483154 -138.73446289 7.84966309 -138.08251953 7.7722168 C-135.09615107 7.41492204 -132.11059494 7.05119975 -129.125 6.6875 C-128.13113281 6.56955078 -127.13726562 6.45160156 -126.11328125 6.33007812 C-120.57161521 5.65043984 -115.07655818 4.85231848 -109.58149719 3.8710022 C-99.70042255 2.12227679 -89.95627222 1.24964531 -79.9375 0.8125 C-79.1035672 0.77263977 -78.2696344 0.73277954 -77.41043091 0.69171143 C-51.63138375 -0.51847087 -25.79905362 -0.18389918 0 0 Z " fill="#030303" transform="translate(508,29)"/>
<path d="M0 0 C1.51878707 0.04015128 3.03767541 0.07664926 4.55664062 0.109375 C8.26903811 0.19731034 11.97762855 0.33521541 15.6875 0.5 C16.6775 2.48 16.6775 2.48 17.6875 4.5 C18.3475 4.5 19.0075 4.5 19.6875 4.5 C22.92870238 11.38238292 25.83535135 18.32221589 28.4765625 25.45703125 C29.65284875 28.53888399 29.65284875 28.53888399 31.2109375 31.54296875 C33.02396044 35.17381098 34.30415816 38.88830867 35.625 42.71875 C36.65316382 45.55325207 36.65316382 45.55325207 38.125 48.34375 C40.24972393 52.63569234 41.81359313 57.07854972 43.4375 61.578125 C44.5631059 64.65009111 45.72178395 67.56856789 47.1875 70.5 C49.30317601 74.73135202 50.83340665 79.13344967 52.4375 83.578125 C53.95026766 87.70672008 55.70099422 91.57017335 57.6875 95.5 C58.38367237 97.32233356 59.05156281 99.15578216 59.6875 101 C60.73519724 103.95260131 61.78468708 106.69437416 63.1875 109.5 C65.03685661 113.19871321 66.33723678 117.01289456 67.71875 120.90625 C68.67672139 123.61094083 68.67672139 123.61094083 70.1875 126.5 C72.03685661 130.19871321 73.33723678 134.01289456 74.71875 137.90625 C75.67672139 140.61094083 75.67672139 140.61094083 77.1875 143.5 C78.57200958 146.26901915 79.59846428 148.95915925 80.625 151.875 C81.80633534 155.20789287 83.0447715 158.36915274 84.6875 161.5 C86.7941059 165.514943 88.24436879 169.6910615 89.75 173.9609375 C90.84793809 176.93451983 92.21994949 179.69251207 93.6875 182.5 C95.55203641 186.63440682 97.16492688 190.79003245 98.6875 195.0625 C100.11429297 199.03907508 101.72808652 202.75155682 103.6875 206.5 C105.9496132 211.51599014 107.85688157 216.61684087 109.7109375 221.796875 C110.5459806 224.1082743 111.42010352 226.39791712 112.3125 228.6875 C114.41887929 234.30451144 115.6875 239.43665945 115.6875 245.5 C102.1575 245.5 88.6275 245.5 74.6875 245.5 C67.9835688 233.20945946 67.9835688 233.20945946 66.0625 227.8125 C64.77636911 224.32565625 63.50387052 220.96427866 61.75 217.6875 C59.34200434 213.10643509 57.6507209 208.25074239 55.88110352 203.3972168 C53.66081924 197.31951401 51.13543792 191.41538727 48.375 185.5625 C45.9641595 180.29195381 43.92917383 174.92505266 41.9230957 169.49243164 C39.13476031 161.95791712 36.26552879 154.45205172 32.5625 147.3125 C30.78616863 143.88062779 29.62788888 140.39775601 28.46875 136.71875 C27.69669812 134.52612267 26.76517125 132.55737238 25.6875 130.5 C23.86611604 127.01591325 22.64816413 123.51919468 21.46484375 119.77734375 C20.41560174 116.70343375 19.06220946 113.80437713 17.70703125 110.85546875 C16.65065509 108.41487556 15.79187149 105.95544947 14.9375 103.4375 C12.94688299 97.79874027 10.28521019 92.60466323 7.55761719 87.29858398 C5.09987632 82.46755069 3.18023254 77.72456389 1.6875 72.5 C-4.98323374 78.42954111 -7.45335888 85.63274661 -10.3828125 93.91015625 C-11.86326958 98.03428668 -13.62060429 102.01335921 -15.46875 105.984375 C-18.07141241 111.60231702 -20.34843247 117.22899556 -22.41015625 123.06640625 C-23.49828756 126.00106343 -24.86346344 128.72793006 -26.3125 131.5 C-28.13147292 135.53337474 -29.7103255 139.57950332 -31.1875 143.75 C-32.90383579 148.54525877 -34.93451132 153.11744145 -37.0859375 157.73046875 C-38.73184246 161.44685924 -40.06311996 165.25075821 -41.4140625 169.08203125 C-42.5006644 172.00640767 -43.91787416 174.71074833 -45.3125 177.5 C-45.99505224 179.32747859 -46.66013885 181.16152768 -47.3125 183 C-48.73528159 187.00326379 -50.34190801 190.73017185 -52.3125 194.5 C-55.61735543 201.97184706 -58.63512393 209.5532489 -61.375 217.25 C-62.7812567 221.16115144 -64.38478587 224.81219905 -66.3125 228.5 C-67.32779541 230.82671865 -68.32738198 233.1603447 -69.3125 235.5 C-69.87407142 236.81289757 -70.43654235 238.12541083 -71 239.4375 C-71.433125 240.448125 -71.86625 241.45875 -72.3125 242.5 C-72.9725 242.5 -73.6325 242.5 -74.3125 242.5 C-74.3125 243.16 -74.3125 243.82 -74.3125 244.5 C-77.64405251 246.16577625 -81.37786059 245.62007856 -85.0390625 245.59765625 C-86.33328629 245.59553383 -86.33328629 245.59553383 -87.65365601 245.59336853 C-90.4149723 245.58776188 -93.17620812 245.57520827 -95.9375 245.5625 C-97.8072905 245.55748586 -99.67708226 245.5529228 -101.546875 245.54882812 C-106.13544777 245.53779029 -110.72396023 245.5205212 -115.3125 245.5 C-115.39455721 237.00024102 -113.43320581 230.36302793 -109.484375 222.890625 C-105.98592366 215.75378426 -103.0922964 208.13169524 -100.6875 200.5625 C-99.55585561 197.00114855 -98.0121284 193.83565422 -96.28125 190.53125 C-95.25926277 188.38837356 -94.52561279 186.26335799 -93.8125 184 C-92.63912455 180.27580836 -91.08913248 176.98266201 -89.28125 173.53125 C-88.25926277 171.38837356 -87.52561279 169.26335799 -86.8125 167 C-85.86719324 163.99967853 -84.77202129 161.28635882 -83.3125 158.5 C-81.46897726 154.97417514 -80.22344837 151.42080368 -79.015625 147.63671875 C-77.63460989 143.43996727 -75.77539614 139.4819009 -73.89453125 135.4921875 C-71.26862675 129.90322533 -68.84994434 124.44151142 -67.0234375 118.54296875 C-66.04238404 115.72378764 -64.66381784 113.17069769 -63.28125 110.53125 C-62.25926277 108.38837356 -61.52561279 106.26335799 -60.8125 104 C-59.86719324 100.99967853 -58.77202129 98.28635882 -57.3125 95.5 C-55.46966892 91.97549797 -54.22297366 88.42471129 -53.01953125 84.640625 C-52.21288082 82.19839055 -51.23115415 79.85168111 -50.19140625 77.5 C-47.08131254 70.42280897 -44.19858048 63.24562185 -41.34375 56.0625 C-39.7787512 52.1737151 -38.15260912 48.31086992 -36.53125 44.4453125 C-35.42315251 41.76741023 -34.36244672 39.07607261 -33.3125 36.375 C-31.99368827 33.04354385 -30.52006458 29.8700081 -28.875 26.6875 C-26.38831265 21.85861173 -24.52375462 16.89191489 -22.71875 11.7734375 C-22.2546875 10.69320313 -21.790625 9.61296875 -21.3125 8.5 C-21.08280518 7.78682617 -20.85311035 7.07365234 -20.61645508 6.33886719 C-16.92842383 -2.31025048 -7.96370249 -0.36421204 0 0 Z " fill="#040404" transform="translate(372.3125,305.5)"/>
<path d="M0 0 C0.73511307 0.00359528 1.47022614 0.00719055 2.22761536 0.01089478 C2.99829346 0.01074875 3.76897156 0.01060272 4.56300354 0.01045227 C7.12237823 0.01115157 9.68168104 0.01894471 12.24104309 0.02676392 C14.01081299 0.02862804 15.7805834 0.03005197 17.550354 0.03105164 C22.2176505 0.03487728 26.88491607 0.04470796 31.55220032 0.05575562 C36.31110719 0.06596873 41.07001905 0.07054904 45.82893372 0.07559204 C55.17334837 0.08633019 64.51774004 0.10340717 73.86213684 0.12442017 C73.88546879 24.47164866 73.90311748 48.81887549 73.91394901 73.1661129 C73.91911134 84.47025297 73.92615284 95.77438611 73.93757629 107.07852173 C73.94752506 116.92804138 73.95399073 126.77755602 73.95622534 136.62708056 C73.95753211 141.84516752 73.9606159 147.06324011 73.9678669 152.28132248 C73.97463014 157.18793199 73.97675317 162.09452115 73.97524452 167.00113487 C73.97552071 168.8063601 73.97752404 170.61158597 73.98134232 172.41680717 C73.98628429 174.87278617 73.98513324 177.32868734 73.98239136 179.78466797 C73.98676062 180.86734044 73.98676062 180.86734044 73.99121815 181.97188509 C73.97625805 186.89617774 73.97625805 186.89617774 72.86213684 189.12442017 C72.20213684 189.12442017 71.54213684 189.12442017 70.86213684 189.12442017 C70.71518372 190.05061157 70.71518372 190.05061157 70.56526184 190.99551392 C69.33283852 197.97570463 67.01538641 203.81792103 63.86213684 210.12442017 C63.20213684 210.12442017 62.54213684 210.12442017 61.86213684 210.12442017 C61.60819153 211.01258423 61.35424622 211.90074829 61.09260559 212.81582642 C57.25125298 223.14479676 46.97123533 232.23029762 37.86213684 238.12442017 C37.20213684 238.12442017 36.54213684 238.12442017 35.86213684 238.12442017 C35.86213684 238.78442017 35.86213684 239.44442017 35.86213684 240.12442017 C28.12235176 245.27045205 20.18058735 244.69027499 11.24494934 244.62051392 C9.62124059 244.62066916 7.99753148 244.62216225 6.37382507 244.62492371 C2.97962451 244.62630369 -0.41415147 244.61382019 -3.80827332 244.5909729 C-8.13434758 244.56263484 -12.45971479 244.56531857 -16.78584099 244.57806301 C-20.13699762 244.5850579 -23.48799422 244.57718697 -26.8391304 244.56480598 C-28.4329428 244.56032517 -30.02677259 244.55992483 -31.6205864 244.56387138 C-49.5857385 244.58753175 -59.89572538 240.28960992 -73.07145691 227.97988892 C-75.00115962 226.08243018 -75.00115962 226.08243018 -77.13786316 225.12442017 C-78.15032379 223.42637905 -79.0995152 221.6902643 -80.01286316 219.93692017 C-81.68115311 216.79111795 -83.33466848 213.83202369 -85.32536316 210.87442017 C-87.39480519 207.73457709 -88.75216483 204.61878986 -90.13786316 201.12442017 C-90.63286316 199.92817017 -91.12786316 198.73192017 -91.63786316 197.49942017 C-95.18970763 187.7459425 -97.34988027 177.52887876 -96.13786316 167.12442017 C-93.64993004 164.63648705 -92.19930199 164.88774629 -88.80438232 164.87217712 C-88.08040756 164.87936264 -87.3564328 164.88654816 -86.61051941 164.89395142 C-85.8657988 164.89440964 -85.12107819 164.89486786 -84.35379028 164.89533997 C-82.777648 164.89836278 -81.20150871 164.90624996 -79.62541199 164.91860962 C-77.21343894 164.93682144 -74.80185079 164.93911959 -72.38981628 164.93887329 C-70.85921401 164.94379033 -69.32861434 164.94961946 -67.79801941 164.95645142 C-67.07606888 164.95756424 -66.35411835 164.95867706 -65.61029053 164.95982361 C-62.51767098 164.98909626 -60.09463661 165.13882902 -57.13786316 166.12442017 C-56.51286316 168.05020142 -56.51286316 168.05020142 -56.13786316 170.43692017 C-55.43416653 174.15478401 -54.56845849 176.1874508 -52.13786316 179.12442017 C-51.70473816 180.64035767 -51.70473816 180.64035767 -51.26286316 182.18692017 C-49.87281742 185.81648403 -48.62363533 186.54752323 -45.13786316 188.12442017 C-41.89837773 189.13332366 -38.93154271 189.25659269 -35.54655457 189.26968384 C-34.42503998 189.27606369 -33.30352539 189.28244354 -32.14802551 189.28901672 C-30.33701859 189.29068596 -30.33701859 189.29068596 -28.48942566 189.29238892 C-27.24414093 189.29571732 -25.9988562 189.29904572 -24.71583557 189.30247498 C-22.08140998 189.30753805 -19.44708756 189.31031606 -16.81266785 189.3097229 C-14.1163107 189.30964154 -11.42012306 189.31659767 -8.72380066 189.33023071 C-4.83312284 189.34855154 -0.94264231 189.35345946 2.94807434 189.35488892 C4.15136383 189.36207443 5.35465332 189.36925995 6.59440613 189.37666321 C7.72222504 189.37358658 8.85004395 189.37050995 10.01203918 189.36734009 C11.49285477 189.36947762 11.49285477 189.36947762 13.00358582 189.37165833 C18.78742016 188.87141028 23.37439062 186.75281073 27.86213684 183.12442017 C29.30492004 181.04967408 30.57074793 178.95002392 31.78401184 176.73379517 C32.31768372 175.93715454 32.31768372 175.93715454 32.86213684 175.12442017 C33.52213684 175.12442017 34.18213684 175.12442017 34.86213684 175.12442017 C34.77825962 159.93851197 34.68313464 144.7527031 34.57460976 129.56695175 C34.52448244 122.51598023 34.47803957 115.46502034 34.44026184 108.41397095 C34.40380993 101.61230799 34.35710184 94.81077759 34.30407333 88.00922394 C34.28550726 85.41125958 34.27040754 82.81326811 34.25879288 80.21526337 C34.24196853 76.58296198 34.21294211 72.9509514 34.1809845 69.3187561 C34.17882431 68.2391008 34.17666412 67.1594455 34.17443848 66.04707336 C34.16327499 65.05711868 34.15211151 64.067164 34.14060974 63.04721069 C34.13507898 62.18809963 34.12954823 61.32898857 34.12384987 60.44384384 C33.95254134 57.73171759 33.95254134 57.73171759 31.86213684 54.12442017 C19.98213684 53.79442017 8.10213684 53.46442017 -4.13786316 53.12442017 C-6.38814429 45.2484362 -6.38814429 45.2484362 -6.38078308 41.2147522 C-6.38539803 39.86898605 -6.38539803 39.86898605 -6.3901062 38.49603271 C-6.37932793 37.07845169 -6.37932793 37.07845169 -6.36833191 35.63223267 C-6.36787369 34.64568695 -6.36741547 33.65914124 -6.36694336 32.6427002 C-6.36393573 30.57018827 -6.35609437 28.4976783 -6.34367371 26.42520142 C-6.32530264 23.23892304 -6.32316501 20.05293372 -6.32341003 16.86660767 C-6.31849865 14.85098013 -6.312672 12.83535458 -6.30583191 10.81973267 C-6.30471909 9.86253326 -6.30360626 8.90533386 -6.30245972 7.91912842 C-6.29607986 7.04086395 -6.28970001 6.16259949 -6.28312683 5.25772095 C-6.27931503 4.48163483 -6.27550323 3.70554871 -6.27157593 2.90594482 C-5.98218884 -0.94970967 -3.22420663 0.00665403 0 0 Z " fill="#030303" transform="translate(582.1378631591797,306.8755798339844)"/>
<path d="M0 0 C3.17924634 1.44576587 5.67911188 3.22466351 8.375 5.4375 C11.39851014 7.90110085 14.43104018 10.3451359 17.51953125 12.7265625 C28.66085312 21.32805579 28.66085312 21.32805579 33.33642578 26.3059082 C34.93168483 27.93043161 36.58206482 29.37942187 38.32421875 30.84375 C44.16667649 35.92147414 49.60156796 41.41554533 55.07202148 46.88671875 C56.92477468 48.73728967 58.78538706 50.57970076 60.64648438 52.421875 C67.55848693 59.30146339 74.01805681 66.28294065 80 74 C80.63736084 74.81500977 81.27472168 75.63001953 81.93139648 76.46972656 C86 81.68991356 86 81.68991356 86 84 C86.66 84 87.32 84 88 84 C88.31114746 84.54712646 88.62229492 85.09425293 88.94287109 85.65795898 C90.41898646 88.25185932 91.89687456 90.84474458 93.375 93.4375 C93.91286133 94.38222168 94.45072266 95.32694336 95.00488281 96.30029297 C97.63921557 100.91541449 100.29212932 105.5157034 103.0234375 110.07421875 C103.71493896 111.23062866 103.71493896 111.23062866 104.42041016 112.41040039 C105.29204082 113.86221122 106.16913896 115.31075659 107.05224609 116.75561523 C110 121.67036478 110 121.67036478 110 125 C106.875 125.5625 106.875 125.5625 103 125 C100.53021838 122.28033459 98.83036157 119.17120784 97 116 C94.70671282 112.92044293 93.20074716 111.13383144 90 109 C88.26394487 110.73605513 88.34388018 113.20549496 87.9375 115.5625 C87.76089844 116.57441406 87.58429688 117.58632813 87.40234375 118.62890625 C87.26957031 119.41136719 87.13679687 120.19382812 87 121 C86.34 121 85.68 121 85 121 C83.08508253 117.23619669 81.21749714 113.51064547 79.5625 109.625 C78.31800686 106.73777591 76.9926691 103.98243412 75.5625 101.1875 C73.89489643 97.90177665 72.42826476 94.63304118 71.125 91.1875 C64.58427482 74.55017921 54.12644897 60.89080776 42 48 C40.86778783 46.71465048 39.74218929 45.42342823 38.625 44.125 C31.88114416 36.37436 24.90991755 28.79907169 17.57421875 21.60546875 C15.18468617 19.16850128 12.98953763 16.57131141 10.76953125 13.98046875 C8.99026808 11.98910799 7.1186868 10.15572384 5.1875 8.3125 C2.56419534 5.74801383 0.98626831 3.61631715 0 0 Z " fill="#0C0C0C" transform="translate(693,154)"/>
<path d="M0 0 C0.66 0.33 1.32 0.66 2 1 C-9.22 12.22 -20.44 23.44 -32 35 C-32.66 34.67 -33.32 34.34 -34 34 C-12.2227806 10.58185184 -12.2227806 10.58185184 -1 1 C-0.67 0.67 -0.34 0.34 0 0 Z " fill="#2D2D2D" transform="translate(187,101)"/>
<path d="M0 0 C6.86515862 -0.26404456 13.25846717 0.74158054 20 2 C20 2.99 20 3.98 20 5 C8.60946892 5.10313358 -2.64764338 5.05253638 -14 4 C-14 3.67 -14 3.34 -14 3 C-4.1 2.505 -4.1 2.505 6 2 C3.03 1.505 3.03 1.505 0 1 C0 0.67 0 0.34 0 0 Z " fill="#535353" transform="translate(432,857)"/>
<path d="M0 0 C0 0.33 0 0.66 0 1 C-8.91 1 -17.82 1 -27 1 C-27 1.66 -27 2.32 -27 3 C-33.69613196 3.797837 -40.25766581 4.12910853 -47 4 C-46.67 3.01 -46.34 2.02 -46 1 C-30.66755906 -0.13573637 -15.36798951 -0.10674496 0 0 Z " fill="#787878" transform="translate(502,35)"/>
<path d="M0 0 C0.66 0.33 1.32 0.66 2 1 C0.54782324 2.50596108 -0.91192861 4.00462104 -2.375 5.5 C-3.18710938 6.3353125 -3.99921875 7.170625 -4.8359375 8.03125 C-7 10 -7 10 -9 10 C-8.9071875 11.8871875 -8.9071875 11.8871875 -8.8125 13.8125 C-8.79173989 17.72231986 -8.79173989 17.72231986 -10.5 20 C-10.995 20.33 -11.49 20.66 -12 21 C-12.66 20.67 -13.32 20.34 -14 20 C-13.525625 19.67 -13.05125 19.34 -12.5625 19 C-10.63528511 16.94676709 -10.63528511 16.94676709 -10.9375 13.375 C-10.59870176 8.81816368 -8.26074253 6.95917945 -4.9375 4 C-3.30786183 2.64692034 -1.66690133 1.30689904 0 0 Z " fill="#B5B5B5" transform="translate(239,176)"/>
<path d="M0 0 C0.66 0 1.32 0 2 0 C0.38989473 4.07376031 -2.53822271 6.76507069 -5.625 9.75 C-6.140625 10.25660156 -6.65625 10.76320312 -7.1875 11.28515625 C-8.45383339 12.52803902 -9.7263144 13.76465276 -11 15 C-11.66 14.67 -12.32 14.34 -13 14 C-11.02108364 11.85393535 -9.04187901 9.70813786 -7.0625 7.5625 C-6.49853516 6.95083984 -5.93457031 6.33917969 -5.35351562 5.70898438 C-4.81533203 5.12568359 -4.27714844 4.54238281 -3.72265625 3.94140625 C-3.22515869 3.40201416 -2.72766113 2.86262207 -2.21508789 2.30688477 C-1.48918929 1.52614632 -0.75381738 0.75381738 0 0 Z " fill="#CACACA" transform="translate(215,202)"/>
<path d="M0 0 C9.24 0 18.48 0 28 0 C28 0.33 28 0.66 28 1 C27.39003174 1.02505615 26.78006348 1.0501123 26.15161133 1.07592773 C23.37172102 1.1924058 20.5921266 1.31489632 17.8125 1.4375 C16.85279297 1.47681641 15.89308594 1.51613281 14.90429688 1.55664062 C13.97294922 1.59853516 13.04160156 1.64042969 12.08203125 1.68359375 C10.80162964 1.73858032 10.80162964 1.73858032 9.49536133 1.79467773 C6.95027345 1.94945049 6.95027345 1.94945049 4.30737305 2.58227539 C2 3 2 3 0 2 C0 1.34 0 0.68 0 0 Z " fill="#D7D7D7" transform="translate(475,36)"/>
<path d="M0 0 C0.66 0.33 1.32 0.66 2 1 C-2.62 5.62 -7.24 10.24 -12 15 C-12 11.11566834 -10.82920314 10.32394504 -8.25 7.5 C-7.55390625 6.7265625 -6.8578125 5.953125 -6.140625 5.15625 C-4.19891408 3.20036601 -2.25069252 1.58156772 0 0 Z " fill="#3A3A3A" transform="translate(103,202)"/>
<path d="M0 0 C0.99 0 1.98 0 3 0 C3.54470737 7.9587799 2.48901845 13.81947541 -1 21 C-2 19 -2 19 -1.44140625 17.08203125 C-1.15136719 16.33308594 -0.86132812 15.58414063 -0.5625 14.8125 C0.92635766 10.63016347 1.28150106 7.41018334 1 3 C0.34 3 -0.32 3 -1 3 C-0.67 2.01 -0.34 1.02 0 0 Z " fill="#737373" transform="translate(62,234)"/>
<path d="M0 0 C1.875 0.625 1.875 0.625 4 2 C5.25 5.125 5.25 5.125 6 8 C5.01 8 4.02 8 3 8 C2.67 8.66 2.34 9.32 2 10 C0.68373308 6.38026598 0 3.90432869 0 0 Z " fill="#414141" transform="translate(800,291)"/>
<path d="M0 0 C2.3125 0.1875 2.3125 0.1875 4 1 C3.67 1.33 3.34 1.66 3 2 C3.66 2.66 4.32 3.32 5 4 C1.78548731 5.60725635 -1.43612536 5.05748185 -5 5 C-2.75 2.4375 -2.75 2.4375 0 0 Z " fill="#C3C3C3" transform="translate(590,785)"/>
<path d="M0 0 C0.66 0 1.32 0 2 0 C2 2.64 2 5.28 2 8 C1.01 8 0.02 8 -1 8 C-1.04241723 5.66705225 -1.04092937 3.33297433 -1 1 C-0.67 0.67 -0.34 0.34 0 0 Z " fill="#B0B0B0" transform="translate(42,310)"/>
<path d="M0 0 C2.64 0 5.28 0 8 0 C7.01 1.485 7.01 1.485 6 3 C3.03 2.505 3.03 2.505 0 2 C0 1.34 0 0.68 0 0 Z " fill="#C7C7C7" transform="translate(475,36)"/>
<path d="M0 0 C-0.33 0.99 -0.66 1.98 -1 3 C-2.98 3 -4.96 3 -7 3 C-7 2.34 -7 1.68 -7 1 C-4.53721199 -0.231394 -2.7204945 -0.07159196 0 0 Z " fill="#939393" transform="translate(425,39)"/>
</svg>
